<?xml version="1.0" encoding="utf-8"?>
<!DOCTYPE svg PUBLIC "-//W3C//DTD SVG 1.1//EN" "http://www.w3.org/Graphics/SVG/1.1/DTD/svg11.dtd">
<svg style="width:308px;height:308px;" version="1.1" id="图形" xmlns="http://www.w3.org/2000/svg" xmlns:xlink="http://www.w3.org/1999/xlink" x="0px" y="0px" width="1024px" height="1024px" viewBox="0 0 1024 1024" enable-background="new 0 0 1024 1024" xml:space="preserve">
  <path class="svgpath" data-index="path_0" fill="#272636" d="M519.338479 914.487321c0 0-327.409041-349.153517-327.409041-522.16097S338.540948 79.029768 519.338479 79.029768c180.82011 0 327.409041 140.289129 327.409041 313.296582S519.338479 914.487321 519.338479 914.487321zM519.338479 183.461963c-120.531687 0-218.280221 93.526086-218.280221 208.864388 0 115.338302 97.725954 208.864388 218.280221 208.864388 120.531687 0 218.280221-93.526086 218.280221-208.864388C737.618699 276.988049 639.870165 183.461963 519.338479 183.461963zM519.338479 496.758545c-60.265843 0-109.12882-46.740463-109.12882-104.432194 0-57.669151 48.862977-104.432194 109.12882-104.432194 60.288423 0 109.1514 46.763043 109.1514 104.432194C628.489879 450.018082 579.626902 496.758545 519.338479 496.758545z" />

</svg>
